# xmcd
#
# Track frame offsets:
#	150
#	30174
#	46567
#	74133
#	85664
#	103526
#	123501
#	141088
#	149302
#	168766
#	180886
#	198178
#	222550
#	249349
#
# Disc length: 3839 seconds
#
# Revision: 1
# Processed by: cddbd v1.5.2PL0 Copyright (c) Steve Scherf et al.
# Submitted via: audiograbber 1.83.01
#
DISCID=b60efd0e
DTITLE=The Perpetrators - Live At The High and Lonesome Club
DYEAR=2007
DGENRE=Blues
TTITLE0=Off The Hook
TTITLE1=Baltimore
TTITLE2=One Year Ago
TTITLE3=Happy Saturday
TTITLE4=Malt Liquor
TTITLE5=12,000 Miles
TTITLE6=Quarter To Five
TTITLE7=Toe Stub
TTITLE8=Don't You Laugh At Me
TTITLE9=Crack Whore Blues
TTITLE10=Scratch The Surfish
TTITLE11=Six Pack
TTITLE12=She's Gone
TTITLE13=She Asked Me (So I Told Her)
EXTD=Ripped by DjMaxX!
EXTT0=
EXTT1=
EXTT2=
EXTT3=
EXTT4=
EXTT5=
EXTT6=
EXTT7=
EXTT8=
EXTT9=
EXTT10=
EXTT11=
EXTT12=
EXTT13=
PLAYORDER=
